<?xml version="1.0" standalone="no"?><!DOCTYPE svg PUBLIC "-//W3C//DTD SVG 1.1//EN" "http://www.w3.org/Graphics/SVG/1.1/DTD/svg11.dtd"><svg t="1578103363263" class="icon" viewBox="0 0 1024 1024" version="1.1" xmlns="http://www.w3.org/2000/svg" p-id="3580" xmlns:xlink="http://www.w3.org/1999/xlink" width="200" height="200"><defs><style type="text/css"></style></defs><path d="M522.441 501.073c46.275-37.116 76.074-94.293 76.074-158.544 0-111.736-90.077-202.636-200.795-202.636s-200.796 90.9-200.796 202.636c0 64.929 30.526 122.59 77.623 159.804-122.493 50.2-209.081 171.431-209.081 312.87v35.13c0 18.704 14.971 33.773 33.482 33.773h602.29c18.51 0 33.483-15.07 33.483-33.772v-35.13c0-142.65-88.14-264.61-212.28-314.13zM263.84 342.53c0-74.523 60.035-135.092 133.88-135.092s133.832 60.568 133.832 135.092c0 73.604-58.582 133.348-131.118 134.898h-0.34c-1.163 0-2.373 0.097-3.537 0.097-73.264-0.582-132.717-60.86-132.717-134.995zM127.197 821.843v-1.357c0-147.689 123.124-283.556 268.778-285.784 0.581 0 1.162 0.048 1.745 0.048 1.357 0 2.713-0.193 4.07-0.193 146.817 0.92 271.201 137.466 271.201 285.93l-545.794 1.356zM699.931 276.05v67.547h258.601V276.05H699.931z m0 236.459h258.601v-67.546H699.931v67.546z m101.706 168.914h156.895v-67.547H801.637v67.547z" fill="#ffffff" p-id="3581"></path></svg>