<?xml version="1.0" standalone="no"?><!DOCTYPE svg PUBLIC "-//W3C//DTD SVG 1.1//EN" "http://www.w3.org/Graphics/SVG/1.1/DTD/svg11.dtd"><svg t="1578103106089" class="icon" viewBox="0 0 1024 1024" version="1.1" xmlns="http://www.w3.org/2000/svg" p-id="2575" width="200" height="200" xmlns:xlink="http://www.w3.org/1999/xlink"><defs><style type="text/css"></style></defs><path d="M921.6 430.08v163.84l-118.784 19.6608a211.387733 211.387733 0 0 1-12.6976 31.5392l70.4512 98.304-115.9168 115.9168-97.8944-70.4512c-10.6496 5.7344-21.7088 10.24-33.1776 13.9264L593.92 921.6h-163.84l-19.6608-118.784a211.387733 211.387733 0 0 1-31.5392-12.6976L281.3952 860.16l-115.9168-115.9168 69.632-97.0752a200.226133 200.226133 0 0 1-13.9264-33.5872L102.4 593.92v-163.84l118.784-19.6608c3.2768-11.0592 7.7824-22.1184 13.1072-32.3584l-69.632-97.0752L280.576 165.4784l97.0752 69.2224c10.6496-5.3248 21.2992-10.24 32.768-13.5168L430.08 102.4h163.84l19.6608 118.784c11.0592 3.2768 22.1184 7.7824 32.3584 13.5168l97.8944-70.4512 115.9168 115.9168-70.4512 97.8944c5.7344 10.24 10.24 21.2992 13.5168 32.3584L921.6 430.08z m-158.071467-8.021333a116.258133 116.258133 0 0 0-10.001066-23.9616 41.096533 41.096533 0 0 1 2.525866-43.963734l50.141867-69.632-66.696533-66.696533-69.632 50.141867a40.96 40.96 0 0 1-43.9296 2.525866 118.1696 118.1696 0 0 0-23.995734-10.001066 41.130667 41.130667 0 0 1-28.808533-32.597334L559.172267 143.36h-94.344534l-13.960533 84.514133c-2.628267 15.633067-13.994667 28.330667-29.184 32.699734-8.567467 2.423467-17.408 6.587733-25.736533 10.752a41.096533 41.096533 0 0 1-42.0864-3.2768L284.9792 218.9312 218.2144 285.3888l49.3568 68.778667a40.96 40.96 0 0 1 3.037867 42.769066c-4.164267 8.055467-7.645867 16.725333-10.1376 25.122134-4.471467 15.018667-17.134933 26.2144-32.597334 28.7744l-84.514133 13.994666v94.344534l84.514133 13.994666a40.96 40.96 0 0 1 32.290134 27.886934c3.3792 10.478933 6.9632 19.217067 10.990933 26.692266 7.4752 13.789867 6.3488 30.6176-2.730667 43.281067l-49.390933 68.846933 66.696533 66.696534 69.256534-49.698134a41.028267 41.028267 0 0 1 41.5744-3.6864c7.9872 3.822933 16.5888 7.748267 25.4976 10.3424 15.018667 4.471467 26.2144 17.134933 28.808533 32.597334l13.960533 84.514133h94.344534l13.960533-84.514133c2.56-15.1552 13.277867-27.579733 27.921067-32.290134 9.796267-3.1744 18.397867-6.792533 26.282666-10.990933a40.823467 40.823467 0 0 1 43.349334 2.798933l69.632 50.107734 66.696533-66.696534-50.176-70.0416a40.96 40.96 0 0 1-3.652267-41.642666c3.822933-7.918933 7.714133-16.520533 10.3424-25.429334 4.471467-15.018667 17.134933-26.2144 32.597334-28.7744l84.514133-13.994666v-94.344534l-84.514133-13.994666a41.0624 41.0624 0 0 1-32.597334-28.7744zM512 675.84a164.010667 164.010667 0 0 1-163.84-163.84c0-90.350933 73.489067-163.84 163.84-163.84s163.84 73.489067 163.84 163.84-73.489067 163.84-163.84 163.84z m0-286.72a122.88 122.88 0 1 0 0 245.76 122.88 122.88 0 0 0 0-245.76z" p-id="2576" fill="#ffffff"></path></svg>